<svg xmlns="http://www.w3.org/2000/svg" viewBox="0 0 1600 1000" fill="none">
  <defs>
    <linearGradient id="gridFade" x1="0" y1="0" x2="1" y2="1">
      <stop offset="0" stop-color="#0b3c6e" stop-opacity="0.14"/>
      <stop offset="1" stop-color="#1d87d9" stop-opacity="0.06"/>
    </linearGradient>
    <filter id="softBlur" x="-20%" y="-20%" width="140%" height="140%">
      <feGaussianBlur stdDeviation="2"/>
    </filter>
  </defs>

  <rect x="0" y="0" width="1600" height="1000" fill="url(#gridFade)" opacity="0.14"/>

  <g stroke="#0b3c6e" stroke-opacity="0.2" stroke-width="1">
    <path d="M0 160H1600"/>
    <path d="M0 320H1600"/>
    <path d="M0 480H1600"/>
    <path d="M0 640H1600"/>
    <path d="M0 800H1600"/>
    <path d="M200 0V1000"/>
    <path d="M400 0V1000"/>
    <path d="M600 0V1000"/>
    <path d="M800 0V1000"/>
    <path d="M1000 0V1000"/>
    <path d="M1200 0V1000"/>
    <path d="M1400 0V1000"/>
  </g>

  <g stroke="#1d87d9" stroke-opacity="0.35" stroke-width="6" stroke-linecap="round" stroke-linejoin="round" filter="url(#softBlur)">
    <path d="M120 730H360L420 630L500 790L590 560L690 730H920"/>
  </g>

  <g transform="translate(1040 140)" opacity="0.4">
    <rect x="0" y="0" width="360" height="230" rx="24" fill="#ffffff" fill-opacity="0.5"/>
    <circle cx="70" cy="76" r="28" fill="#1d87d9" fill-opacity="0.25"/>
    <rect x="120" y="56" width="190" height="16" rx="8" fill="#0b3c6e" fill-opacity="0.22"/>
    <rect x="120" y="86" width="130" height="14" rx="7" fill="#0b3c6e" fill-opacity="0.14"/>
    <rect x="40" y="136" width="280" height="14" rx="7" fill="#0b3c6e" fill-opacity="0.16"/>
    <rect x="40" y="164" width="220" height="14" rx="7" fill="#0b3c6e" fill-opacity="0.12"/>
  </g>

  <g transform="translate(150 120)" opacity="0.35">
    <circle cx="120" cy="120" r="112" stroke="#0b3c6e" stroke-opacity="0.2" stroke-width="14"/>
    <path d="M120 72V168" stroke="#1d87d9" stroke-width="18" stroke-linecap="round"/>
    <path d="M72 120H168" stroke="#1d87d9" stroke-width="18" stroke-linecap="round"/>
  </g>

  <g transform="translate(1180 640)" opacity="0.3" fill="#0b3c6e" fill-opacity="0.2">
    <rect x="0" y="0" width="42" height="110" rx="12"/>
    <rect x="60" y="20" width="42" height="90" rx="12"/>
    <rect x="120" y="-10" width="42" height="120" rx="12"/>
    <rect x="180" y="35" width="42" height="75" rx="12"/>
  </g>
</svg>
